<?xml version="1.0" encoding="utf-8"?>
<!-- Generator: Adobe Illustrator 27.5.0, SVG Export Plug-In . SVG Version: 6.00 Build 0)  -->
<svg version="1.1" xmlns="http://www.w3.org/2000/svg" xmlns:xlink="http://www.w3.org/1999/xlink" x="0px" y="0px"
	 viewBox="0 0 1122 1122" style="enable-background:new 0 0 1122 1122;" xml:space="preserve">
<g id="Bg">
	<rect y="0" style="fill:#FFFFFF;" width="1122" height="1122"/>
</g>
<g id="Object">
	<g>
		<g>
			<polygon style="fill:none;" points="1041.857,847.224 1043.19,847.224 1063.226,812.877 1082.595,779.673 1081.928,778.53 
				1061.893,812.877 			"/>
			<polygon style="fill:#F7F7F7;" points="881.571,572.449 901.607,606.796 921.643,641.143 941.679,606.796 961.714,572.449 
				921.643,572.449 			"/>
			<polygon style="fill:#E3E3E3;" points="881.571,984.612 901.607,950.265 921.643,915.918 881.571,915.918 841.5,915.918 
				861.536,950.265 			"/>
			<polygon style="fill:#E3E3E3;" points="1041.857,435.061 1001.786,435.061 961.714,435.061 981.75,469.408 1001.786,503.755 
				1021.821,469.408 			"/>
			<polygon style="fill:#C9C9C9;" points="1041.857,709.836 1001.786,709.836 961.714,709.836 981.75,744.184 1001.786,778.53 
				1021.821,744.184 			"/>
			<polygon style="fill:#969696;" points="961.714,847.224 981.75,812.877 1001.786,778.53 961.714,778.53 921.643,778.53 
				941.679,812.877 			"/>
			<polygon style="fill:#F7F7F7;" points="480.857,984.612 440.786,984.612 400.714,984.612 420.75,1018.959 440.786,1053.306 
				460.821,1018.959 			"/>
			<polygon style="fill:#969696;" points="881.571,984.612 841.5,984.612 801.429,984.612 821.464,1018.959 841.5,1053.306 
				861.536,1018.959 			"/>
			<polygon style="fill:#F7F7F7;" points="961.714,984.612 981.75,950.265 1001.786,915.918 961.714,915.918 921.643,915.918 
				941.679,950.265 			"/>
			<polygon style="fill:#969696;" points="961.714,984.612 921.643,984.612 881.571,984.612 901.607,1018.959 921.643,1053.306 
				941.679,1018.959 			"/>
			<polygon style="fill:#E3E3E3;" points="601.071,1053.306 621.107,1018.959 641.143,984.612 601.071,984.612 561,984.612 
				581.036,1018.959 			"/>
			<polygon style="fill:#E3E3E3;" points="1041.857,572.449 1001.786,572.449 961.714,572.449 981.75,606.796 1001.786,641.143 
				1021.821,606.796 			"/>
			<polygon style="fill:#EFEFEF;" points="641.143,847.224 601.071,847.224 561,847.224 581.036,881.571 601.071,915.918 
				621.107,881.571 			"/>
			<polygon style="fill:#F7F7F7;" points="360.643,1053.306 380.678,1087.653 400.714,1122 420.75,1087.653 440.786,1053.306 
				400.714,1053.306 			"/>
			<polygon style="fill:#969696;" points="1041.857,709.836 1061.893,675.49 1081.928,641.143 1041.857,641.143 1001.786,641.143 
				1021.821,675.49 			"/>
			<polygon style="fill:#C9C9C9;" points="1001.786,915.918 1021.821,950.265 1041.857,984.612 1061.893,950.265 1081.928,915.918 
				1041.857,915.918 			"/>
			<polygon style="fill:#C9C9C9;" points="1041.857,984.612 1061.893,1018.959 1081.928,1053.306 1101.964,1018.959 1122,984.612 
				1081.928,984.612 			"/>
			<polygon style="fill:#666666;" points="1081.928,847.224 1043.19,847.224 1041.857,847.224 1061.893,881.571 1081.928,915.918 
				1101.964,881.571 1122,847.224 1083.262,847.224 			"/>
			<polygon style="fill:#F7F7F7;" points="1122,435.061 1101.964,400.714 1081.928,366.367 1061.893,400.714 1041.857,435.061 
				1081.928,435.061 			"/>
			<polygon style="fill:#F7F7F7;" points="1041.857,435.061 1021.821,469.408 1001.786,503.755 1041.857,503.755 1081.928,503.755 
				1061.893,469.408 			"/>
			<polygon style="fill:#E3E3E3;" points="1122,572.449 1101.964,538.102 1081.928,503.755 1061.893,538.102 1041.857,572.449 
				1081.928,572.449 			"/>
			<polygon style="fill:#F7F7F7;" points="761.357,641.143 741.321,675.49 721.286,709.836 761.357,709.836 801.429,709.836 
				781.393,675.49 			"/>
			<polygon style="fill:#E3E3E3;" points="1041.857,709.836 1021.821,675.49 1001.786,641.143 981.75,675.49 961.714,709.836 
				1001.786,709.836 			"/>
			<polygon style="fill:#666666;" points="1081.928,641.143 1061.893,675.49 1041.857,709.836 1081.928,709.836 1122,709.836 
				1101.964,675.49 			"/>
			<polygon style="fill:#C9C9C9;" points="841.5,778.53 821.464,744.184 801.429,709.836 781.393,744.184 761.357,778.53 
				801.429,778.53 			"/>
			<polygon style="fill:#969696;" points="921.643,778.53 901.607,744.184 881.571,709.836 861.536,744.184 841.5,778.53 
				881.571,778.53 			"/>
			<polygon style="fill:#EFEFEF;" points="1081.928,778.53 1061.893,744.184 1041.857,709.836 1021.821,744.184 1001.786,778.53 
				1041.857,778.53 			"/>
			<polygon style="fill:#C9C9C9;" points="1101.964,744.184 1081.928,778.53 1083.262,778.53 1122,778.53 1122,709.836 			"/>
			<polygon style="fill:#EFEFEF;" points="721.286,847.224 701.25,812.877 681.214,778.53 661.179,812.877 641.143,847.224 
				681.214,847.224 			"/>
			<polygon style="fill:#C9C9C9;" points="801.429,847.224 781.393,812.877 761.357,778.53 741.321,812.877 721.286,847.224 
				761.357,847.224 			"/>
			<polygon style="fill:#666666;" points="881.571,847.224 921.643,847.224 961.714,847.224 941.679,812.877 921.643,778.53 
				901.607,812.877 			"/>
			<polygon style="fill:#C9C9C9;" points="1083.262,778.53 1082.595,779.673 1063.226,812.877 1043.19,847.224 1081.928,847.224 
				1083.262,847.224 1122,847.224 1122,844.938 1103.298,812.877 			"/>
			<polygon style="fill:#EFEFEF;" points="520.929,915.918 500.893,881.571 480.857,847.224 460.821,881.571 440.786,915.918 
				480.857,915.918 			"/>
			<polygon style="fill:#F7F7F7;" points="641.143,847.224 621.107,881.571 601.071,915.918 641.143,915.918 681.214,915.918 
				661.179,881.571 			"/>
			<polygon style="fill:#969696;" points="761.357,915.918 741.321,881.571 721.286,847.224 701.25,881.571 681.214,915.918 
				721.286,915.918 			"/>
			<polygon style="fill:#E3E3E3;" points="801.429,847.224 781.393,881.571 761.357,915.918 801.429,915.918 841.5,915.918 
				821.464,881.571 			"/>
			<polygon style="fill:#969696;" points="921.643,915.918 901.607,881.571 881.571,847.224 861.536,881.571 841.5,915.918 
				881.571,915.918 			"/>
			<polygon style="fill:#969696;" points="1001.786,915.918 1041.857,915.918 1081.928,915.918 1061.893,881.571 1041.857,847.224 
				1021.821,881.571 			"/>
			<polygon style="fill:#969696;" points="1081.928,915.918 1122,915.918 1122,847.224 1101.964,881.571 			"/>
			<polygon style="fill:#E3E3E3;" points="721.286,984.612 701.25,950.265 681.214,915.918 661.179,950.265 641.143,984.612 
				681.214,984.612 			"/>
			<polygon style="fill:#C9C9C9;" points="881.571,984.612 861.536,950.265 841.5,915.918 821.464,950.265 801.429,984.612 
				841.5,984.612 			"/>
			<polygon style="fill:#C9C9C9;" points="881.571,984.612 921.643,984.612 961.714,984.612 941.679,950.265 921.643,915.918 
				901.607,950.265 			"/>
			<polygon style="fill:#E3E3E3;" points="1081.928,915.918 1061.893,950.265 1041.857,984.612 1081.928,984.612 1122,984.612 
				1101.964,950.265 			"/>
			<polygon style="fill:#F7F7F7;" points="320.571,984.612 300.536,1018.959 280.5,1053.306 320.571,1053.306 360.643,1053.306 
				340.607,1018.959 			"/>
			<polygon style="fill:#F7F7F7;" points="601.071,1053.306 581.036,1018.959 561,984.612 540.964,1018.959 520.929,1053.306 
				561,1053.306 			"/>
			<polygon style="fill:#969696;" points="721.286,984.612 701.25,1018.959 681.214,1053.306 721.286,1053.306 761.357,1053.306 
				741.321,1018.959 			"/>
			<polygon style="fill:#666666;" points="801.429,984.612 781.393,1018.959 761.357,1053.306 801.429,1053.306 841.5,1053.306 
				821.464,1018.959 			"/>
			<polygon style="fill:#C9C9C9;" points="881.571,984.612 861.536,1018.959 841.5,1053.306 881.571,1053.306 921.643,1053.306 
				901.607,1018.959 			"/>
			<polygon style="fill:#666666;" points="1001.786,1053.306 981.75,1018.959 961.714,984.612 941.679,1018.959 921.643,1053.306 
				961.714,1053.306 			"/>
			<polygon style="fill:#969696;" points="1001.786,1053.306 1041.857,1053.306 1081.928,1053.306 1061.893,1018.959 
				1041.857,984.612 1021.821,1018.959 			"/>
			<polygon style="fill:#E3E3E3;" points="1081.928,1053.306 1122,1053.306 1122,984.612 1101.964,1018.959 			"/>
			<polygon style="fill:#E3E3E3;" points="520.929,1053.306 500.893,1087.653 480.857,1122 520.929,1122 561,1122 540.964,1087.653 
							"/>
			<polygon style="fill:#E3E3E3;" points="681.214,1053.306 661.179,1087.653 641.143,1122 681.214,1122 721.286,1122 
				701.25,1087.653 			"/>
			<polygon style="fill:#666666;" points="801.429,1122 781.393,1087.653 761.357,1053.306 741.321,1087.653 721.286,1122 
				761.357,1122 			"/>
			<polygon style="fill:#C9C9C9;" points="921.643,1053.306 901.607,1087.653 881.571,1122 921.643,1122 961.714,1122 
				941.679,1087.653 			"/>
			<polygon style="fill:#969696;" points="1001.786,1053.306 981.75,1087.653 961.714,1122 1001.786,1122 1041.857,1122 
				1021.821,1087.653 			"/>
			<polygon style="fill:#C9C9C9;" points="1081.928,1053.306 1061.893,1087.653 1041.857,1122 1081.928,1122 1122,1122 
				1101.964,1087.653 			"/>
		</g>
		<g>
			<polygon style="fill:#F7F7F7;" points="681.214,137.388 701.25,103.04 721.286,68.694 681.214,68.694 641.143,68.694 
				661.179,103.04 			"/>
			<polygon style="fill:#E3E3E3;" points="120.214,137.388 140.25,171.734 160.286,206.081 180.321,171.734 200.357,137.388 
				160.286,137.388 			"/>
			<polygon style="fill:#E3E3E3;" points="200.357,412.163 220.393,377.816 240.429,343.469 200.357,343.469 160.286,343.469 
				180.321,377.816 			"/>
			<polygon style="fill:#EFEFEF;" points="400.714,68.694 420.75,103.04 440.786,137.388 460.821,103.04 480.857,68.694 
				440.786,68.694 			"/>
			<polygon style="fill:#969696;" points="440.786,0 460.821,34.347 480.857,68.694 500.893,34.347 520.929,0 480.857,0 			"/>
			<polygon style="fill:#969696;" points="200.357,0 220.393,34.347 240.429,68.694 260.464,34.347 280.5,0 240.429,0 			"/>
			<polygon style="fill:#F7F7F7;" points="601.071,137.388 621.107,171.734 641.143,206.081 661.179,171.734 681.214,137.388 
				641.143,137.388 			"/>
			<polygon style="fill:#F7F7F7;" points="280.5,412.163 300.536,377.816 320.571,343.469 280.5,343.469 240.429,343.469 
				260.464,377.816 			"/>
			<polygon style="fill:#C9C9C9;" points="280.5,137.388 300.536,171.734 320.571,206.081 340.607,171.734 360.643,137.388 
				320.571,137.388 			"/>
			<polygon style="fill:#F7F7F7;" points="360.643,274.775 320.571,274.775 280.5,274.775 300.536,309.122 320.571,343.469 
				340.607,309.122 			"/>
			<polygon style="fill:#E3E3E3;" points="40.071,0 0,0 0,68.694 20.036,34.347 			"/>
			<polygon style="fill:#E3E3E3;" points="40.071,412.163 60.107,377.816 80.143,343.469 40.071,343.469 0,343.469 20.036,377.816 
							"/>
			<polygon style="fill:#F7F7F7;" points="80.143,206.081 100.179,240.428 120.214,274.775 140.25,240.428 160.286,206.081 
				120.214,206.081 			"/>
			<polygon style="fill:#EFEFEF;" points="80.143,480.857 100.179,446.51 120.214,412.163 80.143,412.163 40.071,412.163 
				60.107,446.51 			"/>
			<polygon style="fill:#F7F7F7;" points="120.214,549.551 140.25,515.204 160.286,480.857 120.214,480.857 80.143,480.857 
				100.179,515.204 			"/>
			<polygon style="fill:#E3E3E3;" points="120.214,0 80.143,0 40.071,0 60.107,34.347 80.143,68.694 100.179,34.347 			"/>
			<polygon style="fill:#C9C9C9;" points="120.214,137.388 80.143,137.388 40.071,137.388 60.107,171.734 80.143,206.081 
				100.179,171.734 			"/>
			<polygon style="fill:#969696;" points="80.143,68.694 60.107,34.347 40.071,0 20.036,34.347 0,68.694 40.071,68.694 			"/>
			<polygon style="fill:#F7F7F7;" points="120.214,0 100.179,34.347 80.143,68.694 120.214,68.694 160.286,68.694 140.25,34.347 			
				"/>
			<polygon style="fill:#666666;" points="200.357,0 180.321,34.347 160.286,68.694 200.357,68.694 240.429,68.694 220.393,34.347 
							"/>
			<polygon style="fill:#C9C9C9;" points="240.429,68.694 280.5,68.694 320.571,68.694 300.536,34.347 280.5,0 260.464,34.347 			
				"/>
			<polygon style="fill:#E3E3E3;" points="440.786,0 420.75,34.347 400.714,68.694 440.786,68.694 480.857,68.694 460.821,34.347 
							"/>
			<polygon style="fill:#C9C9C9;" points="480.857,68.694 520.929,68.694 561,68.694 540.964,34.347 520.929,0 500.893,34.347 			
				"/>
			<polygon style="fill:#E3E3E3;" points="641.143,68.694 621.107,34.347 601.071,0 581.036,34.347 561,68.694 601.071,68.694 			
				"/>
			<polygon style="fill:#969696;" points="120.214,137.388 100.179,103.04 80.143,68.694 60.107,103.04 40.071,137.388 
				80.143,137.388 			"/>
			<polygon style="fill:#C9C9C9;" points="120.214,137.388 160.286,137.388 200.357,137.388 180.321,103.04 160.286,68.694 
				140.25,103.04 			"/>
			<polygon style="fill:#C9C9C9;" points="400.714,68.694 380.678,103.04 360.643,137.388 400.714,137.388 440.786,137.388 
				420.75,103.04 			"/>
			<polygon style="fill:#969696;" points="440.786,137.388 480.857,137.388 520.929,137.388 500.893,103.04 480.857,68.694 
				460.821,103.04 			"/>
			<polygon style="fill:#E3E3E3;" points="80.143,206.081 60.107,171.734 40.071,137.388 20.036,171.734 0,206.081 40.071,206.081 
							"/>
			<polygon style="fill:#666666;" points="120.214,137.388 100.179,171.734 80.143,206.081 120.214,206.081 160.286,206.081 
				140.25,171.734 			"/>
			<polygon style="fill:#969696;" points="160.286,206.081 200.357,206.081 240.429,206.081 220.393,171.734 200.357,137.388 
				180.321,171.734 			"/>
			<polygon style="fill:#EFEFEF;" points="480.857,206.081 520.929,206.081 561,206.081 540.964,171.734 520.929,137.388 
				500.893,171.734 			"/>
			<polygon style="fill:#E3E3E3;" points="80.143,206.081 60.107,240.428 40.071,274.775 80.143,274.775 120.214,274.775 
				100.179,240.428 			"/>
			<polygon style="fill:#E3E3E3;" points="120.214,274.775 160.286,274.775 200.357,274.775 180.321,240.428 160.286,206.081 
				140.25,240.428 			"/>
			<polygon style="fill:#EFEFEF;" points="440.786,274.775 420.75,240.428 400.714,206.081 380.678,240.428 360.643,274.775 
				400.714,274.775 			"/>
			<polygon style="fill:#F7F7F7;" points="80.143,343.469 120.214,343.469 160.286,343.469 140.25,309.122 120.214,274.775 
				100.179,309.122 			"/>
			<polygon style="fill:#EFEFEF;" points="400.714,343.469 380.678,309.122 360.643,274.775 340.607,309.122 320.571,343.469 
				360.643,343.469 			"/>
			<polygon style="fill:#666666;" points="20.036,103.04 0,68.694 0,137.388 40.071,137.388 			"/>
			<polygon style="fill:#F7F7F7;" points="20.036,240.428 0,206.081 0,274.775 40.071,274.775 			"/>
		</g>
	</g>
</g>
</svg>
